# Created by Metasequoia

v -2.964280 2.219360 67.299431
v -6.277920 4.103440 67.863518
v -3.216400 3.927880 80.712334
v 0.000000 2.078120 81.530327
v -12.934240 0.000000 82.962090
v -10.382680 0.000000 95.909462
v 0.000000 3.927880 92.961952
v -6.357120 0.000000 107.294487
v 0.000000 3.191320 101.987625
v 0.000000 0.000000 119.959023
v -2.964280 0.175560 67.299431
v -9.503560 2.577080 34.737724
v -9.503560 5.358760 34.737724
v -12.929840 6.504960 39.222649
v -22.044880 2.577080 41.081245
v -14.836801 0.175560 69.730003
v 28.685362 2.577080 -16.183826
v 14.476000 2.457840 -12.530056
v 14.523080 3.498440 -11.595951
v -28.376921 4.567640 12.512035
v -35.566521 2.411640 2.052410
v -34.441883 2.411640 12.111187
v -31.944002 2.411640 19.963840
v 0.000000 0.000000 81.530327
v 0.000000 -2.078120 81.530327
v 0.000000 -3.927880 92.961952
v -3.216400 -3.927880 80.712334
v -6.277920 -3.752320 67.863518
v -2.964280 -1.868240 67.299431
v 0.000000 -3.191320 101.987625
v -9.503560 -0.204600 34.737724
v -12.929840 -1.350800 39.222649
v 14.523080 -0.207680 -11.595951
v -28.376921 0.302280 12.512035
v -4.112680 4.467320 24.484383
v 0.660000 2.577080 44.789513
v -4.112680 0.449240 24.484383
v -25.666521 2.411640 9.423668
v -4.013680 2.411640 20.886082
v 12.686521 5.518480 -5.412632
v 12.686521 -2.049080 -5.412632
v 7.377040 2.411640 -0.006351
v 6.295960 2.411640 -2.906391
v 10.649321 -0.600600 -7.660160
v 10.649321 4.565440 -7.660160
v -5.516280 2.457840 -27.427990
v -5.469200 3.498440 -26.599499
v -5.469200 -0.207680 -26.599499
v -7.530160 -0.600600 -25.148380
v -9.041560 2.411640 -22.908787
v -7.530160 4.565440 -25.148380
v -17.304760 1.334520 -33.874390
v 2.964280 -2.219360 67.299431
v 6.277920 -4.103440 67.863518
v 3.216400 -3.927880 80.712334
v 12.934240 0.000000 82.962090
v 10.382680 0.000000 95.909462
v 6.357120 0.000000 107.294487
v 2.964280 -0.175560 67.299431
v 9.504001 -2.577080 34.737724
v 9.504001 -5.358760 34.737724
v 12.929840 -6.504960 39.222649
v 22.044880 -2.577080 41.081245
v 14.837241 -0.175560 69.730003
v -28.684921 -2.577080 -16.183826
v -14.476000 -2.457840 -12.530056
v -14.523080 -3.498440 -11.595951
v 28.376921 -4.567640 12.512035
v 35.566521 -2.411640 2.052410
v 34.441883 -2.411640 12.110760
v 31.944002 -2.411640 19.963840
v 3.216400 3.927880 80.712334
v 6.277920 3.752320 67.863518
v 2.964280 1.868240 67.299431
v 9.504001 0.204600 34.737724
v 12.929840 1.350800 39.222649
v -14.523080 0.207680 -11.595951
v 28.376921 -0.302280 12.512035
v 4.112680 -4.467320 24.484383
v -0.659560 -2.577080 44.789513
v 4.112680 -0.449240 24.484383
v 25.666521 -2.411640 9.423668
v 4.014120 -2.411640 20.886082
v -12.686521 -5.518480 -5.412632
v -12.686521 2.049080 -5.412632
v -7.376600 -2.411640 -0.006351
v -6.295960 -2.411640 -2.906391
v -10.649321 0.600600 -7.660160
v -10.649321 -4.565440 -7.660160
v 5.516280 -2.457840 -27.428432
v 5.469200 -3.498440 -26.599499
v 5.469200 0.207680 -26.599499
v 7.530160 0.600600 -25.148380
v 9.041560 -2.411640 -22.908787
v 7.530160 -4.565440 -25.148380
v 17.304760 -1.334520 -33.874390
v 5.086840 5.086840 -338.938110
v 5.086840 5.086840 -330.423645
v 7.194000 0.000000 -330.423645
v 7.193560 0.000000 -338.938110
v 0.000000 7.194000 -338.938110
v 0.000000 7.194000 -330.423645
v -5.086840 5.086840 -338.938110
v -5.086840 5.086840 -330.423645
v -7.194000 0.000000 -338.938110
v -7.194000 0.000000 -330.423645
v -5.086840 -5.086840 -338.938110
v -5.086840 -5.086840 -330.423645
v 0.000000 -7.194000 -338.938110
v 0.000000 -7.194000 -330.423645
v 5.086840 -5.086840 -338.938110
v 5.086840 -5.086840 -330.423645
v 3.597000 0.000000 -340.568359
v 2.543200 2.543200 -340.568359
v 0.000000 3.597000 -340.568359
v -2.543640 2.543200 -340.568359
v -3.597000 0.000000 -340.568359
v -2.543640 -2.543640 -340.568359
v 0.000000 -3.597000 -340.568359
v 2.543200 -2.543640 -340.568359
v 0.000000 0.000000 -340.568359
v 4.221800 0.000000 -26.737202
v 2.985400 2.985400 -26.737202
v 2.310000 2.310000 -24.267506
v 3.267000 0.000000 -24.267506
v 0.000000 4.221800 -26.737202
v 0.000000 3.267000 -24.267506
v -2.985400 2.985400 -26.737202
v -2.310000 2.310000 -24.267506
v -4.221800 0.000000 -26.737202
v -3.267000 0.000000 -24.267506
v -2.985400 -2.985400 -26.737202
v -2.310000 -2.310000 -24.267506
v 0.000000 -4.221800 -26.737202
v 0.000000 -3.267000 -24.267506
v 2.985400 -2.985400 -26.737202
v 2.310000 -2.310000 -24.267506
v 0.000000 0.000000 -22.953663
v 4.630120 4.630120 -326.251526
v 6.548080 0.000000 -326.251526
v 4.221800 0.000000 -327.907288
v 2.984960 2.985400 -327.907288
v 0.000000 6.548080 -326.251526
v 0.000000 4.221800 -327.907288
v -4.630560 4.630120 -326.251526
v -2.985400 2.985400 -327.907288
v -6.548080 0.000000 -326.251526
v -4.221800 0.000000 -327.907288
v -4.630560 -4.630120 -326.251526
v -2.985400 -2.985400 -327.907288
v 0.000000 -6.548080 -326.251526
v 0.000000 -4.221800 -327.907288
v 4.630120 -4.630120 -326.251526
v 2.984960 -2.985400 -327.907288
v 4.221800 0.000000 -309.163269
v 2.984960 2.985400 -309.163269
v 0.000000 4.221800 -309.163269
v -2.985400 2.985400 -309.163269
v -4.221800 0.000000 -309.163269
v -2.985400 -2.985400 -309.163269
v 0.000000 -4.221800 -309.163269
v 2.984960 -2.985400 -309.163269
v 8.349000 -3.502400 -350.613098
v 8.199841 -3.100680 -346.784241
v 4.154920 -0.403040 -348.780090
v 3.816120 -0.805200 -351.266479
v 5.101360 -2.697640 -342.393921
v 3.124440 -0.000440 -345.791138
v 0.000000 -2.697200 -341.077393
v 0.000000 0.000000 -344.632629
v -2.494360 -5.451160 -359.818359
v 2.546720 -5.042840 -357.326172
v -0.656040 -2.345640 -355.760193
v -4.758600 -2.857800 -358.493042
v 6.880280 -4.305400 -354.296753
v 1.951840 -1.608200 -353.550964
v 12.312520 -0.805200 -349.961060
v 10.926081 -0.403040 -343.790039
v 6.496160 -0.000440 -339.048096
v 0.000000 0.000000 -337.751404
v -1.558920 -2.857800 -362.823547
v 4.285160 -2.345640 -359.961365
v 10.256401 -1.608200 -355.687134
v 8.349000 1.892000 -350.613098
v 8.199841 2.294160 -346.784241
v 5.101360 2.696760 -342.393921
v 0.000000 2.697200 -341.077393
v -2.494360 -0.264880 -359.818359
v 2.546720 0.351560 -357.326172
v 6.880280 1.089000 -354.296753
v -9.068840 -2.857800 -362.447754
v -6.959920 -4.727800 -363.810486
v -6.959920 -0.988240 -363.810486
v -5.863440 -2.857800 -366.125305
v -9.427000 -2.857800 -369.983704
v -8.349000 3.502400 -350.613098
v -8.200280 3.100240 -346.784241
v -4.155360 0.403040 -348.780090
v -3.816120 0.805200 -351.266479
v -5.101360 2.697640 -342.393921
v -3.124880 0.000440 -345.791138
v 2.494360 5.451160 -359.818359
v -2.546720 5.042840 -357.326172
v 0.656040 2.345640 -355.760193
v 4.758600 2.857800 -358.493042
v -6.880280 4.305400 -354.296753
v -1.951840 1.608200 -353.550964
v -12.312960 0.805200 -349.961060
v -10.926081 0.403040 -343.790039
v -6.496160 0.000440 -339.048096
v 1.558480 2.857800 -362.823547
v -4.285160 2.748240 -359.961365
v -10.256401 1.608200 -355.687134
v -8.349000 -1.892000 -350.613098
v -8.200280 -2.294160 -346.784241
v -5.101360 -2.696760 -342.393921
v 2.494360 0.264440 -359.818359
v -2.546720 -0.351560 -357.326172
v -6.880280 -1.089000 -354.296753
v 9.068400 2.857800 -362.447754
v 6.959920 4.727800 -363.810486
v 6.959920 0.988240 -363.810486
v 5.863000 2.857800 -366.125305
v 9.426560 2.857800 -369.983704
# 224 vertices

vt 0.51870 0.17310
vt 0.51080 0.16090
vt 0.45310 0.16660
vt 0.45550 0.18110
vt 0.56620 0.15680
vt 0.56360 0.10950
vt 0.50620 0.11740
vt 0.60360 0.14390
vt 0.61660 0.11000
vt 0.67820 0.11830
vt 0.92810 0.59360
vt 0.92670 0.57520
vt 0.71000 0.57580
vt 0.71110 0.58940
vt 0.44860 0.12840
vt 0.31950 0.13940
vt 0.32480 0.17980
vt 0.80420 0.40160
vt 0.80390 0.40850
vt 0.89820 0.40770
vt 0.18160 0.12930
vt 0.13830 0.13890
vt 0.19190 0.15380
vt 0.21770 0.12840
vt 0.31110 0.20040
vt 0.61580 0.58190
vt 0.61690 0.59570
vt 0.53420 0.90530
vt 0.58970 0.90260
vt 0.54060 0.89230
vt 0.47680 0.89220
vt 0.47620 0.90690
vt 0.53510 0.94910
vt 0.59300 0.94980
vt 0.64550 0.94280
vt 0.62840 0.91070
vt 0.70560 0.92690
vt 0.92530 0.55680
vt 0.70900 0.56230
vt 0.34710 0.95050
vt 0.47660 0.94540
vt 0.34730 0.90970
vt 0.80420 0.42620
vt 0.16730 0.97350
vt 0.21150 0.97770
vt 0.21870 0.95200
vt 0.24750 0.97400
vt 0.33110 0.89100
vt 0.61470 0.56820
vt 0.27620 0.23740
vt 0.60830 0.69090
vt 0.54090 0.69090
vt 0.54090 0.70940
vt 0.54090 0.67250
vt 0.38340 0.85640
vt 0.29190 0.85860
vt 0.27660 0.85490
vt 0.20790 0.93760
vt 0.18300 0.16950
vt 0.36730 0.22830
vt 0.17610 0.34980
vt 0.15430 0.43150
vt 0.14680 0.68120
vt 0.17870 0.75960
vt 0.42330 0.85940
vt 0.41890 0.81310
vt 0.32080 0.71510
vt 0.29470 0.70740
vt 0.45880 0.82390
vt 0.31360 0.68850
vt 0.26140 0.24300
vt 0.15310 0.36620
vt 0.15380 0.74610
vt 0.16720 0.76630
vt 0.18370 0.78920
vt 0.19710 0.78720
vt 0.19100 0.32000
vt 0.17740 0.31970
vt 0.16390 0.34450
vt 0.60410 0.49290
vt 0.60060 0.50090
vt 0.76600 0.50110
vt 0.77000 0.49270
vt 0.67120 0.40850
vt 0.67150 0.42620
vt 0.07130 0.81840
vt 0.07570 0.82860
vt 0.08400 0.83710
vt 0.07250 0.28460
vt 0.06540 0.29410
vt 0.06230 0.30470
vt 0.59300 0.41590
vt 0.67150 0.40160
vt 0.02950 0.86270
vt 0.54320 0.66600
vt 0.63060 0.69260
vt 0.63100 0.66580
vt 0.01530 0.26600
vt 0.20080 0.46920
vt 0.20880 0.48140
vt 0.26640 0.47580
vt 0.26410 0.46120
vt 0.15340 0.48560
vt 0.15590 0.53280
vt 0.21330 0.52490
vt 0.11590 0.49840
vt 0.10300 0.53240
vt 0.04140 0.52410
vt 0.59940 0.44060
vt 0.60080 0.45900
vt 0.81740 0.45840
vt 0.81640 0.44490
vt 0.27090 0.51400
vt 0.40010 0.50300
vt 0.39480 0.46250
vt 0.70530 0.63150
vt 0.70560 0.62460
vt 0.61130 0.62540
vt 0.53790 0.51310
vt 0.58130 0.50340
vt 0.52760 0.48850
vt 0.50180 0.51390
vt 0.40850 0.44190
vt 0.91170 0.45230
vt 0.91060 0.43860
vt 0.22080 0.63800
vt 0.16530 0.64080
vt 0.21440 0.65110
vt 0.27820 0.65110
vt 0.27880 0.63640
vt 0.21990 0.59420
vt 0.16200 0.59350
vt 0.10950 0.60060
vt 0.12660 0.63270
vt 0.04940 0.61650
vt 0.60220 0.47740
vt 0.81850 0.47190
vt 0.40800 0.59280
vt 0.27850 0.59800
vt 0.40770 0.63360
vt 0.70530 0.60690
vt 0.58770 0.56990
vt 0.54350 0.56560
vt 0.53630 0.59130
vt 0.50750 0.56930
vt 0.42390 0.65240
vt 0.91270 0.46610
vt 0.44330 0.40490
vt 0.56580 0.39850
vt 0.49830 0.39850
vt 0.49830 0.41700
vt 0.49830 0.38000
vt 0.37160 0.68700
vt 0.46310 0.68470
vt 0.47840 0.68840
vt 0.54720 0.60570
vt 0.53660 0.47290
vt 0.35230 0.41410
vt 0.54340 0.29260
vt 0.56530 0.21080
vt 0.60820 0.86220
vt 0.57630 0.78380
vt 0.27000 0.39410
vt 0.31490 0.38170
vt 0.39440 0.26810
vt 0.39740 0.24110
vt 0.31120 0.42290
vt 0.41930 0.25640
vt 0.45810 0.39940
vt 0.56640 0.27610
vt 0.60120 0.79720
vt 0.58780 0.77710
vt 0.57130 0.75410
vt 0.55790 0.75610
vt 0.52850 0.32230
vt 0.54210 0.32270
vt 0.55560 0.29780
vt 0.76610 0.53390
vt 0.76960 0.52580
vt 0.60420 0.52560
vt 0.60020 0.53400
vt 0.83820 0.62460
vt 0.83790 0.60690
vt 0.68370 0.72490
vt 0.67930 0.71470
vt 0.67100 0.70620
vt 0.64700 0.35770
vt 0.65410 0.34830
vt 0.65720 0.33770
vt 0.91650 0.61720
vt 0.83790 0.63150
vt 0.72550 0.68060
vt 0.49690 0.36450
vt 0.58440 0.39110
vt 0.58480 0.36430
vt 0.70430 0.37640
vt 0.87780 0.26770
vt 0.83730 0.26770
vt 0.83730 0.29390
vt 0.87780 0.29390
vt 0.83730 0.32010
vt 0.87780 0.32010
vt 0.87780 0.11050
vt 0.83730 0.11050
vt 0.83730 0.13670
vt 0.87780 0.13670
vt 0.83730 0.16290
vt 0.87780 0.16290
vt 0.83730 0.18910
vt 0.87780 0.18910
vt 0.83730 0.21530
vt 0.87780 0.21530
vt 0.83730 0.24150
vt 0.87780 0.24150
vt 0.62530 0.23450
vt 0.64460 0.24250
vt 0.64460 0.26990
vt 0.60600 0.25390
vt 0.61730 0.21520
vt 0.59000 0.21520
vt 0.62530 0.19590
vt 0.60600 0.17660
vt 0.64460 0.18790
vt 0.64460 0.16060
vt 0.66390 0.19590
vt 0.68320 0.17660
vt 0.67190 0.21520
vt 0.69920 0.21520
vt 0.66390 0.23450
vt 0.68320 0.25390
vt 0.64460 0.21520
vt 0.74110 0.26160
vt 0.75900 0.24400
vt 0.75230 0.22720
vt 0.72450 0.25450
vt 0.74090 0.28670
vt 0.72410 0.29340
vt 0.75850 0.30460
vt 0.75140 0.32120
vt 0.78360 0.30490
vt 0.79030 0.32160
vt 0.80150 0.28730
vt 0.81810 0.29440
vt 0.80170 0.26220
vt 0.81850 0.25540
vt 0.78420 0.24420
vt 0.79120 0.22760
vt 0.75130 0.21430
vt 0.79000 0.21470
vt 0.78220 0.19530
vt 0.75950 0.19510
vt 0.72420 0.18670
vt 0.74360 0.17890
vt 0.72460 0.14800
vt 0.74380 0.15620
vt 0.75220 0.12090
vt 0.76000 0.14020
vt 0.79090 0.12120
vt 0.78270 0.14050
vt 0.81800 0.14890
vt 0.79860 0.15670
vt 0.81760 0.18760
vt 0.79840 0.17940
vt 0.99370 0.03180
vt 0.99370 0.02050
vt 0.00780 0.02050
vt 0.00780 0.03180
vt 0.99370 0.04300
vt 0.00780 0.04300
vt 0.99370 0.05430
vt 0.00780 0.05430
vt 0.99370 0.06560
vt 0.00780 0.06560
vt 0.99370 0.07690
vt 0.00780 0.07690
vt 0.99370 0.08820
vt 0.00780 0.08820
vt 0.99370 0.09940
vt 0.00780 0.09940
vt 0.99370 0.00920
vt 0.00780 0.00920
vt 0.97690 0.22410
vt 0.97810 0.20200
vt 0.90200 0.20200
vt 0.90130 0.21620
vt 0.97350 0.24590
vt 0.89910 0.23030
vt 0.96790 0.26730
vt 0.89550 0.24410
vt 0.96010 0.28790
vt 0.89040 0.25740
vt 0.96790 0.13670
vt 0.96010 0.11610
vt 0.89040 0.14660
vt 0.89550 0.15990
vt 0.97350 0.15810
vt 0.89910 0.17370
vt 0.97690 0.17990
vt 0.90130 0.18780
vt 0.83770 0.90330
vt 0.82240 0.90000
vt 0.80210 0.91950
vt 0.82430 0.92850
vt 0.80700 0.88760
vt 0.78290 0.89210
vt 0.80680 0.86680
vt 0.78590 0.85930
vt 0.89830 0.86820
vt 0.87360 0.88650
vt 0.87600 0.90860
vt 0.90130 0.88430
vt 0.85510 0.89720
vt 0.84900 0.92770
vt 0.77880 0.92920
vt 0.81210 0.95040
vt 0.76030 0.89320
vt 0.76640 0.85230
vt 0.88780 0.92440
vt 0.91700 0.89610
vt 0.85010 0.95050
vt 0.73500 0.80750
vt 0.70940 0.83750
vt 0.73450 0.83990
vt 0.75310 0.82480
vt 0.70230 0.87740
vt 0.72430 0.87180
vt 0.72020 0.91470
vt 0.73680 0.90220
vt 0.85120 0.82840
vt 0.81500 0.81000
vt 0.80840 0.82860
vt 0.83970 0.84440
vt 0.77130 0.79620
vt 0.77700 0.81830
vt 0.75970 0.85260
vt 0.77340 0.84500
vt 0.74860 0.86900
vt 0.75460 0.88890
vt 0.81260 0.85040
vt 0.84160 0.86060
vt 0.79180 0.84570
vt 0.93420 0.86650
vt 0.93070 0.85120
vt 0.87750 0.86730
vt 0.87640 0.85170
vt 0.88380 0.83750
vt 0.94550 0.87780
vt 0.97570 0.86510
vt 0.91650 0.84080
vt 0.83410 0.71050
vt 0.84900 0.71370
vt 0.86870 0.69490
vt 0.84730 0.68610
vt 0.86390 0.72580
vt 0.88730 0.72160
vt 0.86400 0.74600
vt 0.88420 0.75340
vt 0.77520 0.74440
vt 0.79930 0.72670
vt 0.79700 0.70520
vt 0.77240 0.72870
vt 0.81730 0.71640
vt 0.82320 0.68680
vt 0.89140 0.68550
vt 0.85920 0.66490
vt 0.90930 0.72060
vt 0.90320 0.76020
vt 0.78560 0.68980
vt 0.75720 0.71720
vt 0.82230 0.66470
vt 0.93890 0.80960
vt 0.96470 0.78130
vt 0.94040 0.77810
vt 0.92190 0.79220
vt 0.97290 0.74280
vt 0.95140 0.74750
vt 0.95670 0.70600
vt 0.94020 0.71760
vt 0.82690 0.78540
vt 0.86140 0.80450
vt 0.86840 0.78670
vt 0.83850 0.77030
vt 0.90330 0.81930
vt 0.89850 0.79770
vt 0.91640 0.76500
vt 0.90290 0.77190
vt 0.92770 0.74950
vt 0.92260 0.73000
vt 0.86510 0.76540
vt 0.83720 0.75450
vt 0.88510 0.77060
vt 0.74040 0.74590
vt 0.74380 0.76070
vt 0.80260 0.74690
vt 0.80320 0.76210
vt 0.79550 0.77550
vt 0.72950 0.73480
vt 0.70010 0.74710
vt 0.76400 0.77130
# 399 texture vertices

vn 0.51780 0.84690 -0.12110
vn 0.51340 0.85070 -0.11280
vn 0.48410 0.87220 -0.06980
vn 0.48010 0.87450 -0.06910
vn -0.33890 0.93620 0.09300
vn -0.33340 0.93780 0.09710
vn -0.36650 0.92710 0.07830
vn -0.35010 0.93260 0.08750
vn -0.37860 0.92020 0.09980
vn -0.33790 0.93100 0.13850
vn -0.32890 0.92980 0.16510
vn 0.98040 0.00000 -0.19690
vn 0.97970 0.00000 -0.20040
vn 0.97970 0.00000 -0.20030
vn -0.38210 0.91580 0.12350
vn -0.39110 0.91290 0.11680
vn -0.35920 0.92030 0.15480
vn -0.36570 0.91730 0.15740
vn 0.12730 0.65870 -0.74160
vn 0.18990 0.65120 -0.73480
vn -0.19220 0.66050 -0.72590
vn -0.33810 0.93870 0.06670
vn -0.33690 0.94080 0.03770
vn -0.33240 0.93820 0.09690
vn -0.30790 0.94310 0.12550
vn 0.27860 0.95960 -0.03970
vn 0.06710 0.99350 -0.09230
vn 0.17900 0.98280 -0.04550
vn 0.97900 0.00000 -0.20390
vn 0.51450 -0.84810 -0.12660
vn 0.51970 -0.84340 -0.13650
vn 0.51890 -0.84490 -0.12990
vn 0.46140 -0.87470 -0.14830
vn 0.46860 -0.87000 -0.15320
vn -0.36900 -0.92700 0.06680
vn -0.33340 -0.93780 0.09710
vn -0.33890 -0.93620 0.09300
vn -0.35280 -0.93260 0.07560
vn -0.33790 -0.93100 0.13850
vn -0.37860 -0.92020 0.09980
vn -0.32890 -0.92980 0.16510
vn 0.97970 0.00000 -0.20050
vn -0.37530 -0.92090 0.10560
vn -0.40870 -0.91210 0.03330
vn -0.40020 -0.91560 0.03920
vn -0.37650 -0.92270 0.08340
vn -0.23290 -0.32540 -0.91650
vn -0.33050 -0.94310 0.03690
vn -0.33170 -0.94110 0.06540
vn -0.32410 -0.94170 0.09040
vn -0.32090 -0.93910 0.12300
vn 0.06440 -0.99490 -0.07740
vn 0.19440 -0.97450 -0.11230
vn 0.15300 -0.98690 -0.05210
vn 0.09980 0.99440 -0.03390
vn -0.70320 0.00000 0.71100
vn 0.17530 -0.98030 0.09110
vn 0.05750 -0.99740 0.04270
vn 0.23250 -0.85650 -0.46080
vn 0.23130 -0.85910 -0.45650
vn 0.24370 -0.88710 -0.39200
vn 0.24630 -0.88580 -0.39340
vn 0.24790 0.88290 -0.39880
vn 0.25060 0.88120 -0.40080
vn 0.27820 0.88490 -0.37360
vn 0.23010 0.97250 0.03650
vn 0.30980 0.92810 0.20670
vn 0.23360 0.96170 0.14370
vn 0.13260 0.98930 0.06090
vn 0.14610 0.98660 0.07200
vn 0.38030 -0.90820 0.17480
vn 0.34510 -0.92340 0.16780
vn -0.65030 -0.75510 -0.08280
vn -0.74990 -0.61970 -0.23150
vn -0.67440 -0.64030 -0.36770
vn -0.70380 -0.60120 -0.37840
vn -0.66460 0.70500 -0.24760
vn -0.50860 0.85920 -0.05580
vn -0.12610 0.85980 -0.49470
vn -0.32250 0.81880 -0.47500
vn 0.27350 -0.88900 -0.36730
vn 0.00890 0.96420 -0.26500
vn -0.04270 0.94590 -0.32170
vn -0.06230 0.94310 -0.32660
vn 0.04220 -0.97890 -0.20010
vn -0.11210 -0.94280 -0.31410
vn 0.10650 -0.96120 -0.25460
vn -0.47870 -0.86660 0.14060
vn -0.45180 -0.87010 0.19680
vn -0.33740 0.92600 0.16940
vn -0.33030 0.93600 0.12160
vn 0.02210 0.96780 -0.25090
vn -0.11130 -0.97210 -0.20660
vn 0.45710 0.54130 -0.70580
vn 0.41140 0.55690 -0.72150
vn 0.52840 -0.24350 -0.81330
vn 0.54040 -0.24210 -0.80590
vn 0.57950 -0.26040 -0.77220
vn 0.57970 -0.25870 -0.77270
vn 0.06680 -0.98300 -0.17120
vn 0.04990 -0.98150 -0.18460
vn -0.54660 -0.65870 0.51710
vn -0.52870 -0.68630 0.49940
vn -0.53160 0.76060 0.37270
vn -0.51320 0.78050 0.35690
vn 0.19460 0.90160 -0.38640
vn 0.20450 0.91350 -0.35160
vn 0.35020 0.57370 -0.74040
vn 0.48270 -0.25220 -0.83870
vn 0.01870 -0.97150 -0.23640
vn -0.57140 -0.65470 0.49490
vn -0.55880 0.75310 0.34710
vn 0.12580 0.87610 -0.46530
vn 0.51970 0.84340 -0.13650
vn -0.51780 -0.84690 -0.12110
vn -0.51340 -0.85070 -0.11280
vn -0.48410 -0.87220 -0.06980
vn -0.48010 -0.87450 -0.06910
vn 0.33890 -0.93620 0.09300
vn 0.33340 -0.93780 0.09710
vn 0.36650 -0.92710 0.07830
vn 0.35010 -0.93260 0.08750
vn 0.37860 -0.92020 0.09980
vn 0.33790 -0.93100 0.13850
vn 0.32890 -0.92980 0.16510
vn -0.98040 0.00000 -0.19690
vn -0.97970 0.00000 -0.20040
vn -0.97970 0.00000 -0.20030
vn 0.38210 -0.91580 0.12350
vn 0.39110 -0.91290 0.11680
vn 0.35920 -0.92030 0.15480
vn 0.36570 -0.91730 0.15740
vn -0.12730 -0.65870 -0.74160
vn -0.18990 -0.65120 -0.73480
vn 0.19220 -0.66050 -0.72590
vn 0.33810 -0.93870 0.06670
vn 0.33690 -0.94080 0.03770
vn 0.33240 -0.93820 0.09690
vn 0.30790 -0.94310 0.12550
vn -0.27860 -0.95960 -0.03970
vn -0.06710 -0.99350 -0.09230
vn -0.17900 -0.98280 -0.04550
vn -0.97900 0.00000 -0.20390
vn -0.51450 0.84810 -0.12660
vn -0.51970 0.84340 -0.13650
vn -0.51890 0.84490 -0.12990
vn -0.46140 0.87470 -0.14830
vn -0.46860 0.87000 -0.15320
vn 0.36900 0.92700 0.06680
vn 0.33340 0.93780 0.09710
vn 0.33890 0.93620 0.09300
vn 0.35280 0.93260 0.07560
vn 0.33790 0.93100 0.13850
vn 0.37860 0.92020 0.09980
vn 0.32890 0.92980 0.16510
vn -0.97970 0.00000 -0.20050
vn 0.37530 0.92090 0.10560
vn 0.40870 0.91210 0.03330
vn 0.40020 0.91560 0.03920
vn 0.37650 0.92270 0.08340
vn 0.23290 0.32540 -0.91650
vn 0.33050 0.94310 0.03690
vn 0.33170 0.94110 0.06540
vn 0.32410 0.94170 0.09040
vn 0.32090 0.93910 0.12300
vn -0.06440 0.99490 -0.07740
vn -0.19440 0.97450 -0.11230
vn -0.15300 0.98690 -0.05210
vn -0.09980 -0.99440 -0.03390
vn 0.70320 0.00000 0.71100
vn -0.17530 0.98030 0.09110
vn -0.05750 0.99740 0.04270
vn 0.14110 0.86170 -0.48740
vn 0.30770 0.83300 -0.45990
vn -0.24370 0.88710 -0.39200
vn -0.24630 0.88580 -0.39340
vn -0.24790 -0.88290 -0.39880
vn -0.25060 -0.88120 -0.40080
vn -0.27820 -0.88490 -0.37360
vn -0.23010 -0.97250 0.03650
vn -0.30980 -0.92810 0.20670
vn -0.23360 -0.96170 0.14370
vn -0.13260 -0.98930 0.06090
vn -0.14610 -0.98660 0.07200
vn -0.38030 0.90820 0.17480
vn -0.34510 0.92340 0.16780
vn 0.65030 0.75510 -0.08280
vn 0.74990 0.61970 -0.23150
vn 0.66460 -0.70500 -0.24760
vn 0.50860 -0.85920 -0.05580
vn 0.12610 -0.85980 -0.49470
vn 0.32250 -0.81880 -0.47500
vn -0.27350 0.88900 -0.36730
vn -0.00890 -0.96420 -0.26500
vn 0.04270 -0.94590 -0.32170
vn 0.06230 -0.94310 -0.32660
vn -0.04220 0.97890 -0.20010
vn 0.11210 0.94280 -0.31410
vn -0.10650 0.96120 -0.25460
vn 0.47870 0.86660 0.14060
vn 0.45180 0.87010 0.19680
vn 0.33740 -0.92600 0.16940
vn 0.33030 -0.93600 0.12160
vn -0.02210 -0.96780 -0.25090
vn 0.11130 0.97210 -0.20660
vn -0.45710 -0.54130 -0.70580
vn -0.41140 -0.55690 -0.72150
vn -0.52840 0.24350 -0.81330
vn -0.54040 0.24210 -0.80590
vn -0.57950 0.26040 -0.77220
vn -0.57970 0.25870 -0.77270
vn -0.06680 0.98300 -0.17120
vn -0.04990 0.98150 -0.18460
vn 0.54660 0.65870 0.51710
vn 0.52870 0.68630 0.49940
vn 0.53160 -0.76060 0.37270
vn 0.51320 -0.78050 0.35690
vn -0.19460 -0.90160 -0.38640
vn -0.20450 -0.91350 -0.35160
vn -0.35020 -0.57370 -0.74040
vn -0.48270 0.25220 -0.83870
vn -0.01870 0.97150 -0.23640
vn 0.57140 0.65470 0.49490
vn 0.55880 -0.75310 0.34710
vn -0.12580 -0.87610 -0.46530
vn -0.51970 -0.84340 -0.13650
vn 1.00000 0.00000 0.00000
vn 0.70710 0.70710 0.00000
vn 0.00000 1.00000 0.00000
vn -0.70710 0.70710 0.00000
vn -1.00000 0.00000 0.00000
vn -0.70710 -0.70710 0.00000
vn 0.00000 -1.00000 0.00000
vn 0.70710 -0.70710 0.00000
vn 0.18410 0.18410 -0.96550
vn 0.26030 0.00000 -0.96550
vn 0.41280 0.00000 -0.91080
vn 0.29190 0.29190 -0.91080
vn 0.00000 0.26030 -0.96550
vn 0.00000 0.41280 -0.91080
vn -0.18410 0.18410 -0.96550
vn -0.29190 0.29190 -0.91080
vn -0.26030 0.00000 -0.96550
vn -0.41280 0.00000 -0.91080
vn -0.18410 -0.18410 -0.96550
vn -0.29190 -0.29190 -0.91080
vn -0.00000 -0.26030 -0.96550
vn -0.00000 -0.41280 -0.91080
vn 0.18410 -0.18410 -0.96550
vn 0.29190 -0.29190 -0.91080
vn 0.00000 0.00000 -1.00000
vn 0.75420 0.00000 0.65660
vn 0.53330 0.53330 0.65660
vn 0.65950 0.65950 0.36060
vn 0.93270 0.00000 0.36060
vn 0.00000 0.75420 0.65660
vn 0.00000 0.93270 0.36060
vn -0.53330 0.53330 0.65660
vn -0.65950 0.65950 0.36060
vn -0.75420 0.00000 0.65660
vn -0.93270 0.00000 0.36060
vn -0.53330 -0.53330 0.65660
vn -0.65950 -0.65950 0.36060
vn 0.00000 -0.75420 0.65660
vn 0.00000 -0.93270 0.36060
vn 0.53330 -0.53330 0.65660
vn 0.65950 -0.65950 0.36060
vn 0.00000 0.00000 1.00000
vn 0.41000 0.41000 -0.81470
vn 0.57990 0.00000 -0.81470
vn 0.00000 0.57990 -0.81470
vn -0.41000 0.41000 -0.81470
vn -0.57990 0.00000 -0.81470
vn -0.41000 -0.41000 -0.81470
vn -0.00000 -0.57990 -0.81470
vn 0.41000 -0.41000 -0.81470
vn 0.45690 0.45690 0.76320
vn 0.64610 0.00000 0.76320
vn 0.00000 0.64610 0.76320
vn -0.45690 0.45690 0.76320
vn -0.64610 0.00000 0.76320
vn -0.45690 -0.45690 0.76320
vn 0.00000 -0.64610 0.76320
vn 0.45690 -0.45690 0.76320
vn 0.70060 0.70060 0.13490
vn 0.99090 0.00000 0.13490
vn 0.00000 0.99090 0.13490
vn -0.70060 0.70060 0.13490
vn -0.99090 0.00000 0.13490
vn -0.70060 -0.70060 0.13490
vn 0.00000 -0.99090 0.13490
vn 0.70060 -0.70060 0.13490
vn -0.45740 -0.80560 0.37650
vn -0.54060 -0.83940 0.05680
vn -0.56190 -0.82290 -0.08370
vn -0.54540 -0.80760 0.22410
vn -0.39620 -0.84620 -0.35640
vn -0.35970 -0.81400 -0.45610
vn 0.02210 -0.80630 -0.59100
vn 0.01000 -0.80480 -0.59340
vn -0.43440 -0.68070 0.58990
vn -0.30780 -0.70290 0.64130
vn -0.29380 -0.71830 0.63060
vn -0.38800 -0.70340 0.59550
vn -0.32020 -0.74310 0.58770
vn -0.40550 -0.76370 0.50240
vn 0.57270 -0.81970 -0.00560
vn 0.51560 -0.82430 0.23380
vn 0.48520 -0.81180 0.32480
vn 0.57210 -0.81860 0.05080
vn 0.30120 -0.81170 0.50040
vn 0.27060 -0.79560 0.54200
vn -0.01330 -0.78270 0.62220
vn -0.00840 -0.78260 0.62250
vn 0.34630 -0.76090 -0.54880
vn 0.39440 -0.76000 -0.51660
vn 0.39610 -0.76350 -0.51000
vn 0.35100 -0.76760 -0.53630
vn 0.51820 -0.79680 -0.31060
vn 0.53530 -0.81050 -0.23790
vn 0.55860 0.82110 -0.11760
vn 0.52660 0.82200 0.21670
vn 0.65150 0.74970 0.11590
vn 0.60200 0.77210 -0.20370
vn 0.31640 0.81260 0.48940
vn 0.39040 0.78450 0.48180
vn 0.00840 0.78260 0.62250
vn 0.01330 0.78270 0.62220
vn 0.32630 0.76350 -0.55730
vn 0.26660 0.76000 -0.59270
vn 0.26740 0.74870 -0.60660
vn 0.28270 0.76970 -0.57230
vn 0.43340 0.78530 -0.44210
vn 0.42590 0.75630 -0.49650
vn -0.49580 0.86660 -0.05650
vn -0.44620 0.86110 -0.24380
vn -0.50740 0.84460 -0.17110
vn -0.52170 0.85130 0.05560
vn -0.28900 0.83650 -0.46550
vn -0.40100 0.80940 -0.42900
vn -0.01000 0.80480 -0.59340
vn -0.02210 0.80630 -0.59100
vn -0.44950 0.68530 0.57300
vn -0.43160 0.76600 0.47640
vn -0.42690 0.79380 0.43320
vn -0.46240 0.72770 0.50670
vn -0.47600 0.87250 0.11000
vn -0.45980 0.86960 0.18020
vn -0.56190 -0.79650 0.22330
vn -0.57010 -0.78080 0.25560
vn -0.53790 0.80010 0.26550
vn -0.55950 0.78360 0.27020
vn 0.35940 0.80190 -0.47740
vn 0.41070 0.78760 -0.45930
vn 0.41630 -0.79360 -0.44370
vn 0.39150 -0.78710 -0.47660
vn -0.65180 -0.75780 0.03100
vn -0.65180 0.75780 0.03100
vn 0.45420 0.78590 -0.41950
vn 0.45420 -0.78590 -0.41950
vn 0.45740 0.80560 0.37650
vn 0.54060 0.83940 0.05680
vn 0.56190 0.82290 -0.08370
vn 0.54540 0.80760 0.22410
vn 0.39620 0.84620 -0.35640
vn 0.35970 0.81400 -0.45610
vn 0.43440 0.68070 0.58990
vn 0.30780 0.70290 0.64130
vn 0.29380 0.71830 0.63060
vn 0.38800 0.70340 0.59550
vn 0.32020 0.74310 0.58770
vn 0.40550 0.76370 0.50240
vn -0.57270 0.81970 -0.00560
vn -0.51560 0.82430 0.23380
vn -0.48520 0.81180 0.32480
vn -0.57210 0.81860 0.05080
vn -0.30120 0.81170 0.50040
vn -0.27060 0.79560 0.54200
vn -0.34630 0.76090 -0.54880
vn -0.35810 0.80020 -0.48110
vn -0.36110 0.80490 -0.47080
vn -0.33990 0.77620 -0.53100
vn -0.52020 0.80620 -0.28190
vn -0.54370 0.81060 -0.21740
vn -0.55860 -0.82110 -0.11760
vn -0.52660 -0.82200 0.21670
vn -0.65150 -0.74970 0.11590
vn -0.60200 -0.77210 -0.20370
vn -0.31640 -0.81260 0.48940
vn -0.39040 -0.78450 0.48180
vn -0.34440 -0.76120 -0.54960
vn -0.28400 -0.72150 -0.63150
vn -0.28050 -0.70890 -0.64710
vn -0.30570 -0.75810 -0.57610
vn -0.43300 -0.77650 -0.45780
vn -0.42590 -0.75630 -0.49650
vn 0.49580 -0.86660 -0.05650
vn 0.44620 -0.86110 -0.24380
vn 0.50740 -0.84460 -0.17110
vn 0.52170 -0.85130 0.05560
vn 0.28900 -0.83650 -0.46550
vn 0.40100 -0.80940 -0.42900
vn 0.44950 -0.68530 0.57300
vn 0.43160 -0.76600 0.47640
vn 0.42690 -0.79380 0.43320
vn 0.46240 -0.72770 0.50670
vn 0.47600 -0.87250 0.11000
vn 0.45980 -0.86960 0.18020
vn 0.56190 0.79650 0.22330
vn 0.57010 0.78080 0.25560
vn 0.53790 -0.80010 0.26550
vn 0.55950 -0.78360 0.27020
vn -0.35940 -0.80190 -0.47740
vn -0.41070 -0.78760 -0.45930
vn -0.41630 0.79360 -0.44370
vn -0.39150 0.78710 -0.47660
vn 0.65180 0.75780 0.03100
vn 0.65180 -0.75780 0.03100
vn -0.45420 -0.78590 -0.41950
vn -0.45420 0.78590 -0.41950
# 420 normal vertices

g spear
s 1
f 2/3/3 4/1/1 1/4/4
f 2/3/3 3/2/2 4/1/1
f 5/7/7 7/5/5 3/2/8
f 5/7/7 6/6/6 7/5/5
f 6/6/6 9/8/9 7/5/5
f 6/6/6 8/9/10 9/8/9
f 10/10/11 9/8/9 8/9/10
f 12/12/12 1/14/14 11/13/13
f 12/12/12 13/11/12 1/14/14
f 15/16/17 2/3/15 14/17/18
f 15/16/17 16/15/16 2/3/15
f 16/15/16 3/2/8 2/3/15
f 16/15/16 5/7/7 3/2/8
f 17/20/21 18/19/20 19/18/19
f 20/23/24 21/22/23 22/21/22
f 20/23/24 22/21/22 23/24/25
f 23/24/25 14/17/18 20/23/24
f 23/24/25 15/16/17 14/17/18
f 13/25/28 20/23/27 14/17/26
f 11/13/13 4/27/29 24/26/29
f 11/13/13 1/14/14 4/27/29
f 25/30/32 26/29/31 27/28/30
f 25/30/32 28/32/34 29/31/33
f 25/30/32 27/28/30 28/32/34
f 26/29/37 5/33/35 27/28/38
f 26/29/37 6/34/36 5/33/35
f 30/36/40 6/34/36 26/29/37
f 30/36/40 8/35/39 6/34/36
f 10/37/41 8/35/39 30/36/40
f 31/38/12 11/13/13 29/39/42
f 31/38/12 12/12/12 11/13/13
f 28/32/45 15/40/43 32/42/46
f 28/32/45 16/41/44 15/40/43
f 27/28/38 16/41/44 28/32/45
f 27/28/38 5/33/35 16/41/44
f 33/43/47 18/19/47 17/20/47
f 34/46/50 22/45/49 21/44/48
f 34/46/50 23/47/51 22/45/49
f 32/42/46 23/47/51 34/46/50
f 32/42/46 15/40/43 23/47/51
f 31/48/54 32/42/53 34/46/52
f 29/39/42 24/26/29 25/49/29
f 29/39/42 11/13/13 24/26/29
f 20/23/27 13/25/28 35/50/55
f 13/53/56 12/52/56 36/51/56
f 12/52/56 31/54/56 36/51/56
f 31/48/54 37/56/58 36/55/57
f 39/57/60 34/46/62 38/58/61
f 39/57/60 37/56/59 34/46/62
f 21/22/65 20/23/64 38/59/63
f 13/25/28 36/60/66 35/50/55
f 31/48/54 34/46/52 37/56/58
f 40/61/67 36/60/69 17/62/68
f 40/61/67 35/50/70 36/60/69
f 36/55/57 41/64/72 17/63/71
f 36/55/57 37/56/58 41/64/72
f 37/68/76 42/66/74 41/65/73
f 37/68/76 39/67/75 42/66/74
f 42/66/77 35/70/79 40/69/78
f 42/66/77 39/67/80 35/70/79
f 34/46/62 21/44/81 38/58/61
f 20/23/64 39/71/80 38/59/63
f 20/23/64 35/50/79 39/71/80
f 40/61/84 17/62/83 19/72/82
f 17/63/87 41/64/86 33/73/85
f 41/64/73 43/75/89 44/74/88
f 41/64/73 42/76/74 43/75/89
f 43/78/90 40/61/78 45/79/91
f 43/78/90 42/77/77 40/61/78
f 40/61/84 19/72/82 45/79/92
f 44/74/93 33/73/85 41/64/86
f 46/81/95 19/83/19 18/82/20
f 46/81/95 47/80/94 19/83/19
f 48/85/97 18/19/99 33/43/98
f 48/85/97 46/84/96 18/19/99
f 33/73/85 49/87/101 48/86/100
f 33/73/85 44/74/93 49/87/101
f 44/74/88 50/88/103 49/87/102
f 44/74/88 43/75/89 50/88/103
f 50/89/104 45/79/91 51/90/105
f 50/89/104 43/78/90 45/79/91
f 51/90/106 19/72/82 47/91/107
f 51/90/106 45/79/92 19/72/82
f 47/93/94 46/84/95 52/92/108
f 46/84/96 48/85/97 52/92/109
f 48/86/100 49/87/101 52/94/110
f 49/97/102 50/96/103 52/95/111
f 50/89/104 51/90/105 52/98/112
f 51/90/106 47/91/107 52/98/113
f 4/1/1 3/2/2 7/5/114
f 54/101/117 25/99/115 53/102/118
f 54/101/117 55/100/116 25/99/115
f 56/105/121 26/103/119 55/100/122
f 56/105/121 57/104/120 26/103/119
f 57/104/120 30/106/123 26/103/119
f 57/104/120 58/107/124 30/106/123
f 10/108/125 30/106/123 58/107/124
f 53/112/128 60/110/126 61/109/126
f 53/112/128 59/111/127 60/110/126
f 63/114/131 54/101/129 62/115/132
f 63/114/131 64/113/130 54/101/129
f 64/113/130 55/100/122 54/101/129
f 64/113/130 56/105/121 55/100/122
f 65/118/135 66/117/134 67/116/133
f 68/121/138 69/120/137 70/119/136
f 68/121/138 70/119/136 71/122/139
f 71/122/139 62/115/132 68/121/138
f 71/122/139 63/114/131 62/115/132
f 61/123/142 68/121/141 62/115/140
f 25/125/143 59/111/127 53/112/128
f 25/125/143 24/124/143 59/111/127
f 4/128/146 7/127/145 72/126/144
f 4/128/146 73/130/148 74/129/147
f 4/128/146 72/126/144 73/130/148
f 7/127/151 56/131/149 72/126/152
f 7/127/151 57/132/150 56/131/149
f 9/134/154 57/132/150 7/127/151
f 9/134/154 58/133/153 57/132/150
f 10/135/155 58/133/153 9/134/154
f 59/111/127 75/136/126 60/110/126
f 59/111/127 74/137/156 75/136/126
f 73/130/159 63/138/157 76/140/160
f 73/130/159 64/139/158 63/138/157
f 72/126/152 64/139/158 73/130/159
f 72/126/152 56/131/149 64/139/158
f 77/141/161 66/117/161 65/118/161
f 78/144/164 70/143/163 69/142/162
f 78/144/164 71/145/165 70/143/163
f 76/140/160 71/145/165 78/144/164
f 76/140/160 63/138/157 71/145/165
f 75/146/168 76/140/167 78/144/166
f 24/124/143 74/137/156 59/111/127
f 24/124/143 4/147/143 74/137/156
f 68/121/141 61/123/142 79/148/169
f 61/151/170 60/150/170 80/149/170
f 60/150/170 75/152/170 80/149/170
f 75/146/168 81/154/172 80/153/171
f 83/155/174 78/144/176 82/156/175
f 83/155/174 81/154/173 78/144/176
f 69/120/179 68/121/178 82/157/177
f 61/123/142 80/158/180 79/148/169
f 75/146/168 78/144/166 81/154/172
f 84/159/181 80/158/183 65/160/182
f 84/159/181 79/148/184 80/158/183
f 80/153/171 85/162/186 65/161/185
f 80/153/171 81/154/172 85/162/186
f 81/166/173 86/164/188 85/163/187
f 81/166/173 83/165/174 86/164/188
f 86/164/189 79/168/191 84/167/190
f 86/164/189 83/165/192 79/168/191
f 78/144/176 69/142/193 82/156/175
f 68/121/178 83/169/192 82/157/177
f 68/121/178 79/148/191 83/169/192
f 84/159/196 65/160/195 67/170/194
f 65/161/199 85/162/198 77/171/197
f 85/162/187 87/173/201 88/172/200
f 85/162/187 86/174/188 87/173/201
f 87/176/202 84/159/190 89/177/203
f 87/176/202 86/175/189 84/159/190
f 84/159/196 67/170/194 89/177/204
f 88/172/205 77/171/197 85/162/198
f 66/180/134 91/178/206 67/181/133
f 66/180/134 90/179/207 91/178/206
f 77/141/210 90/182/208 66/117/211
f 77/141/210 92/183/209 90/182/208
f 77/171/197 93/185/213 92/184/212
f 77/171/197 88/172/205 93/185/213
f 88/172/200 94/186/215 93/185/214
f 88/172/200 87/173/201 94/186/215
f 94/187/216 89/177/203 95/188/217
f 94/187/216 87/176/202 89/177/203
f 95/188/218 67/170/194 91/189/219
f 95/188/218 89/177/204 67/170/194
f 91/191/206 90/182/207 96/190/220
f 90/182/208 92/183/209 96/190/221
f 92/184/212 93/185/213 96/192/222
f 93/195/214 94/194/215 96/193/223
f 94/187/216 95/188/217 96/196/224
f 95/188/218 91/189/219 96/196/225
f 25/99/115 55/100/116 26/103/226
f 62/115/140 53/102/118 61/123/142
f 62/115/140 54/101/117 53/102/118
f 74/129/147 76/140/167 75/146/168
f 74/129/147 73/130/148 76/140/167
f 14/17/26 1/4/4 13/25/28
f 14/17/26 2/3/3 1/4/4
f 29/31/33 32/42/53 31/48/54
f 29/31/33 28/32/34 32/42/53
f 97/200/228 99/198/227 100/197/227
f 97/200/228 98/199/228 99/198/227
f 101/202/229 98/199/228 97/200/228
f 101/202/229 102/201/229 98/199/228
f 103/206/230 102/204/229 101/203/229
f 103/206/230 104/205/230 102/204/229
f 105/208/231 104/205/230 103/206/230
f 105/208/231 106/207/231 104/205/230
f 107/210/232 106/207/231 105/208/231
f 107/210/232 108/209/232 106/207/231
f 109/212/233 108/209/232 107/210/232
f 109/212/233 110/211/233 108/209/232
f 111/214/234 110/211/233 109/212/233
f 111/214/234 112/213/234 110/211/233
f 100/197/227 112/213/234 111/214/234
f 100/197/227 99/198/227 112/213/234
f 114/215/235 100/217/237 113/216/236
f 114/215/235 97/218/238 100/217/237
f 115/219/239 97/218/238 114/215/235
f 115/219/239 101/220/240 97/218/238
f 103/222/242 115/219/239 116/221/241
f 103/222/242 101/220/240 115/219/239
f 103/222/242 117/223/243 105/224/244
f 103/222/242 116/221/241 117/223/243
f 105/224/244 118/225/245 107/226/246
f 105/224/244 117/223/243 118/225/245
f 107/226/246 119/227/247 109/228/248
f 107/226/246 118/225/245 119/227/247
f 119/227/247 111/230/250 109/228/248
f 119/227/247 120/229/249 111/230/250
f 120/229/249 100/217/237 111/230/250
f 120/229/249 113/216/236 100/217/237
f 114/215/235 113/216/236 121/231/251
f 115/219/239 114/215/235 121/231/251
f 116/221/241 115/219/239 121/231/251
f 117/223/243 116/221/241 121/231/251
f 118/225/245 117/223/243 121/231/251
f 119/227/247 118/225/245 121/231/251
f 120/229/249 119/227/247 121/231/251
f 113/216/236 120/229/249 121/231/251
f 124/215/253 122/217/255 123/218/254
f 124/215/253 125/216/252 122/217/255
f 126/220/257 124/215/253 123/218/254
f 126/220/257 127/219/256 124/215/253
f 129/221/258 126/220/257 128/222/259
f 129/221/258 127/219/256 126/220/257
f 130/224/261 129/221/258 128/222/259
f 130/224/261 131/223/260 129/221/258
f 133/225/262 130/224/261 132/226/263
f 133/225/262 131/223/260 130/224/261
f 134/228/265 133/225/262 132/226/263
f 134/228/265 135/227/264 133/225/262
f 137/229/266 134/228/265 136/230/267
f 137/229/266 135/227/264 134/228/265
f 122/217/255 137/229/266 136/230/267
f 122/217/255 125/216/252 137/229/266
f 125/216/252 124/215/253 138/231/268
f 124/215/253 127/219/256 138/231/268
f 127/219/256 129/221/258 138/231/268
f 129/221/258 131/223/260 138/231/268
f 131/223/260 133/225/262 138/231/268
f 133/225/262 135/227/264 138/231/268
f 135/227/264 137/229/266 138/231/268
f 137/229/266 125/216/252 138/231/268
f 142/232/269 140/234/270 141/233/270
f 142/232/269 139/235/269 140/234/270
f 144/236/271 139/235/269 142/232/269
f 144/236/271 143/237/271 139/235/269
f 145/239/272 144/236/271 146/238/272
f 145/239/272 143/237/271 144/236/271
f 147/241/273 146/238/272 148/240/273
f 147/241/273 145/239/272 146/238/272
f 147/241/273 150/242/274 149/243/274
f 147/241/273 148/240/273 150/242/274
f 149/243/274 152/244/275 151/245/275
f 149/243/274 150/242/274 152/244/275
f 152/244/275 153/247/276 151/245/275
f 152/244/275 154/246/276 153/247/276
f 154/246/276 140/234/270 153/247/276
f 154/246/276 141/233/270 140/234/270
f 99/249/278 142/251/277 141/250/278
f 99/249/278 98/248/277 142/251/277
f 98/248/277 144/253/279 142/251/277
f 98/248/277 102/252/279 144/253/279
f 144/253/279 104/254/280 146/255/280
f 144/253/279 102/252/279 104/254/280
f 148/257/281 104/254/280 106/256/281
f 148/257/281 146/255/280 104/254/280
f 150/259/282 106/256/281 108/258/282
f 150/259/282 148/257/281 106/256/281
f 152/261/283 108/258/282 110/260/283
f 152/261/283 150/259/282 108/258/282
f 112/262/284 152/261/283 110/260/283
f 112/262/284 154/263/284 152/261/283
f 99/249/278 154/263/284 112/262/284
f 99/249/278 141/250/278 154/263/284
f 123/267/228 155/265/227 156/264/228
f 123/267/228 122/266/227 155/265/227
f 126/269/229 156/264/228 157/268/229
f 126/269/229 123/267/228 156/264/228
f 128/271/230 157/268/229 158/270/230
f 128/271/230 126/269/229 157/268/229
f 130/273/231 158/270/230 159/272/231
f 130/273/231 128/271/230 158/270/230
f 132/275/232 159/272/231 160/274/232
f 132/275/232 130/273/231 159/272/231
f 134/277/233 160/274/232 161/276/233
f 134/277/233 132/275/232 160/274/232
f 136/279/234 161/276/233 162/278/234
f 136/279/234 134/277/233 161/276/233
f 122/266/227 162/280/234 155/265/227
f 122/266/227 136/281/234 162/280/234
f 156/285/285 140/283/286 139/282/285
f 156/285/285 155/284/286 140/283/286
f 157/287/287 139/282/285 143/286/287
f 157/287/287 156/285/285 139/282/285
f 158/289/288 143/286/287 145/288/288
f 158/289/288 157/287/287 143/286/287
f 159/291/289 145/288/288 147/290/289
f 159/291/289 158/289/288 145/288/288
f 160/295/290 147/293/289 149/292/290
f 160/295/290 159/294/289 147/293/289
f 161/297/291 149/292/290 151/296/291
f 161/297/291 160/295/290 149/292/290
f 153/298/292 161/297/291 151/296/291
f 153/298/292 162/299/292 161/297/291
f 155/284/286 153/298/292 140/283/286
f 155/284/286 162/299/292 153/298/292
f 163/303/296 165/301/294 166/300/293
f 163/303/296 164/302/295 165/301/294
f 164/302/295 168/304/297 165/301/294
f 164/302/295 167/305/298 168/304/297
f 167/305/298 170/306/299 168/304/297
f 167/305/298 169/307/300 170/306/299
f 172/310/303 174/308/301 171/311/304
f 172/310/303 173/309/302 174/308/301
f 175/313/306 173/309/302 172/310/303
f 175/313/306 176/312/305 173/309/302
f 163/303/296 176/312/305 175/313/306
f 163/303/296 166/300/293 176/312/305
f 177/315/310 164/302/308 163/303/307
f 177/315/310 178/314/309 164/302/308
f 178/314/309 167/305/311 164/302/308
f 178/314/309 179/316/312 167/305/311
f 179/316/312 169/307/313 167/305/311
f 179/316/312 180/317/314 169/307/313
f 182/318/317 171/311/315 181/319/318
f 182/318/317 172/310/316 171/311/315
f 183/320/320 172/310/316 182/318/317
f 183/320/320 175/313/319 172/310/316
f 177/315/310 175/313/319 183/320/320
f 177/315/310 163/303/307 175/313/319
f 185/323/323 177/321/321 184/324/324
f 185/323/323 178/322/322 177/321/321
f 186/326/326 178/322/322 185/323/323
f 186/326/326 179/325/325 178/322/322
f 187/328/328 179/325/325 186/326/326
f 187/328/328 180/327/327 179/325/325
f 188/332/332 182/330/330 181/329/329
f 188/332/332 189/331/331 182/330/330
f 189/331/331 183/333/333 182/330/330
f 189/331/331 190/334/334 183/333/333
f 190/334/334 177/321/321 183/333/333
f 190/334/334 184/324/324 177/321/321
f 165/335/337 184/324/335 166/336/338
f 165/335/337 185/323/336 184/324/335
f 168/337/340 185/323/336 165/335/337
f 168/337/340 186/326/339 185/323/336
f 170/338/342 186/326/339 168/337/340
f 170/338/342 187/328/341 186/326/339
f 174/340/346 189/331/344 188/332/343
f 174/340/346 173/339/345 189/331/344
f 173/339/345 190/334/347 189/331/344
f 173/339/345 176/341/348 190/334/347
f 176/341/348 184/324/335 190/334/347
f 176/341/348 166/336/338 184/324/335
f 171/311/304 191/343/350 192/342/349
f 171/311/304 174/308/301 191/343/350
f 191/344/351 188/332/343 193/345/352
f 191/344/351 174/340/346 188/332/343
f 193/345/353 181/329/329 194/346/354
f 193/345/353 188/332/332 181/329/329
f 181/319/318 192/342/356 194/347/355
f 181/319/318 171/311/315 192/342/356
f 192/342/349 191/343/350 195/348/357
f 191/344/351 193/345/352 195/349/358
f 193/345/353 194/346/354 195/349/359
f 194/347/355 192/342/356 195/348/360
f 196/353/364 198/351/362 199/350/361
f 196/353/364 197/352/363 198/351/362
f 197/352/363 201/354/365 198/351/362
f 197/352/363 200/355/366 201/354/365
f 200/355/366 170/356/342 201/354/365
f 200/355/366 187/357/341 170/356/342
f 203/360/369 205/358/367 202/361/370
f 203/360/369 204/359/368 205/358/367
f 206/363/372 204/359/368 203/360/369
f 206/363/372 207/362/371 204/359/368
f 196/353/364 207/362/371 206/363/372
f 196/353/364 199/350/361 207/362/371
f 208/365/376 197/352/374 196/353/373
f 208/365/376 209/364/375 197/352/374
f 209/364/375 200/355/377 197/352/374
f 209/364/375 210/366/378 200/355/377
f 210/366/378 187/357/328 200/355/377
f 210/366/378 180/367/327 187/357/328
f 212/368/381 202/361/379 211/369/382
f 212/368/381 203/360/380 202/361/379
f 213/370/384 203/360/380 212/368/381
f 213/370/384 206/363/383 203/360/380
f 208/365/376 206/363/383 213/370/384
f 208/365/376 196/353/373 206/363/383
f 215/373/387 208/371/385 214/374/388
f 215/373/387 209/372/386 208/371/385
f 216/376/390 209/372/386 215/373/387
f 216/376/390 210/375/389 209/372/386
f 169/378/313 210/375/389 216/376/390
f 169/378/313 180/377/314 210/375/389
f 217/382/394 212/380/392 211/379/391
f 217/382/394 218/381/393 212/380/392
f 218/381/393 213/383/395 212/380/392
f 218/381/393 219/384/396 213/383/395
f 219/384/396 208/371/385 213/383/395
f 219/384/396 214/374/388 208/371/385
f 198/385/399 214/374/397 199/386/400
f 198/385/399 215/373/398 214/374/397
f 201/387/402 215/373/398 198/385/399
f 201/387/402 216/376/401 215/373/398
f 170/388/299 216/376/401 201/387/402
f 170/388/299 169/378/300 216/376/401
f 205/390/406 218/381/404 217/382/403
f 205/390/406 204/389/405 218/381/404
f 204/389/405 219/384/407 218/381/404
f 204/389/405 207/391/408 219/384/407
f 207/391/408 214/374/397 219/384/407
f 207/391/408 199/386/400 214/374/397
f 202/361/370 220/393/410 221/392/409
f 202/361/370 205/358/367 220/393/410
f 220/394/411 217/382/403 222/395/412
f 220/394/411 205/390/406 217/382/403
f 222/395/413 211/379/391 223/396/414
f 222/395/413 217/382/394 211/379/391
f 211/369/382 221/392/416 223/397/415
f 211/369/382 202/361/379 221/392/416
f 221/392/409 220/393/410 224/398/417
f 220/394/411 222/395/412 224/399/418
f 222/395/413 223/396/414 224/399/419
f 223/397/415 221/392/416 224/398/420
# 436 elements

